<svg xmlns="http://www.w3.org/2000/svg" width="800" height="800" viewBox="0 0 800 800">
  <g id="Group_1" data-name="Group 1" transform="translate(-478 -140)">
    <path id="Exclusion_1" data-name="Exclusion 1" d="M800,800H0V0H800V800ZM210,197a10.011,10.011,0,0,0-10,10V587a10.011,10.011,0,0,0,10,10H590a10.011,10.011,0,0,0,10-10V207a10.011,10.011,0,0,0-10-10Z" transform="translate(478 140)" fill="rgba(255,255,255,0.5)"/>
    <g id="Union_1" data-name="Union 1" transform="translate(378 187)" fill="none">
      <path d="M500,753V550H310a10,10,0,0,1-10-10V353H100v-5H300V160a10,10,0,0,1,10-10H500V-47h5V150H690a10,10,0,0,1,10,10V348H900v5H700V540a10,10,0,0,1-10,10H505V753Z" stroke="none"/>
      <path d="M 690.000244140625 544.9999389648438 C 692.7572631835938 544.9999389648438 695.000244140625 542.7570190429688 695.000244140625 540 L 695.000244140625 160.000244140625 C 695.000244140625 157.2432403564453 692.7572631835938 155.0003509521484 690.000244140625 155.0003509521484 L 499.9999389648438 155.0003509521484 L 500.0003967285156 155.0003509521484 L 309.9996032714844 155.0003509521484 C 307.2426147460938 155.0003509521484 304.9997253417969 157.2432403564453 304.9997253417969 160.000244140625 L 304.9997253417969 353.0003662109375 L 304.9997253417969 352.9997863769531 L 304.9997253417969 540 C 304.9997253417969 542.7570190429688 307.2426147460938 544.9999389648438 309.9996032714844 544.9999389648438 L 505.0003967285156 544.9999389648438 L 504.9999389648438 544.9999389648438 L 690.000244140625 544.9999389648438 M 504.9999389648438 753.0003662109375 L 500.0003967285156 753.0003662109375 L 500.0003967285156 549.9999389648438 L 309.9996032714844 549.9999389648438 C 304.4771728515625 549.9999389648438 299.9997253417969 545.5223388671875 299.9997253417969 540 L 299.9997253417969 352.9997863769531 L 99.99993896484375 352.9997863769531 L 99.99993896484375 348.0003662109375 L 299.9997253417969 348.0003662109375 L 299.9997253417969 160.000244140625 C 299.9997253417969 154.4769134521484 304.4771728515625 150.0003509521484 309.9996032714844 150.0003509521484 L 500.0003967285156 150.0003509521484 L 500.0003967285156 -46.999755859375 L 504.9999389648438 -46.999755859375 L 504.9999389648438 150.0003509521484 L 690.000244140625 150.0003509521484 C 695.522705078125 150.0003509521484 700.000244140625 154.4769134521484 700.000244140625 160.000244140625 L 700.000244140625 348.0003662109375 L 900.0000610351562 348.0003662109375 L 900.0000610351562 352.9997863769531 L 700.000244140625 352.9997863769531 L 700.000244140625 540 C 700.000244140625 545.5223388671875 695.522705078125 549.9999389648438 690.000244140625 549.9999389648438 L 504.9999389648438 549.9999389648438 L 504.9999389648438 753.0003662109375 Z" stroke="none" fill="#000"/>
    </g>
  </g>
</svg>
